<?xml version="1.0" encoding="iso-8859-1"?>
<!-- Generator: Adobe Illustrator 19.0.0, SVG Export Plug-In . SVG Version: 6.00 Build 0)  -->
<svg version="1.1" id="Capa_1" xmlns="http://www.w3.org/2000/svg" xmlns:xlink="http://www.w3.org/1999/xlink" x="0px" y="0px"
	 viewBox="0 0 512 512" style="enable-background:new 0 0 512 512;" xml:space="preserve">
<path style="fill:#303C42;" d="M483.335,279.885c2.552-3.762,4.346-8.025,5.596-12.509C503.099,257.464,512,241.487,512,224
	c0-25.76-18.365-47.313-42.677-52.26c0.01-0.365,0.01-0.719,0.01-1.073c0-21.844-16.5-39.906-37.688-42.375
	c-7.479-13.188-21.531-21.625-36.979-21.625c-15.438,0-29.521,8.552-36.979,21.667c-3.781-0.427-7.469-0.479-11.354,0.031
	c-7.448-13.135-21.531-21.698-37-21.698c-8.271,0-16.281,2.448-23.125,6.927c-5.521-4.417-12.365-6.927-19.542-6.927
	c-17.646,0-32,14.354-32,32c0,13.917,8.938,25.792,21.375,30.188c-0.031,0.604-0.042,1.208-0.042,1.813c0,0.365,0,0.74,0.01,1.104
	c-3.49-0.729-7.063-1.104-10.677-1.104c-25.754,0-47.298,18.353-52.254,42.667h-9.225c-5.375,0-8.135-3.542-9.073-5.063
	c-0.948-1.521-2.875-5.573-0.469-10.375l34.25-68.5c3.125-6.24,4.771-13.229,4.771-20.208c0-24.917-20.271-45.188-45.188-45.188H160
	c-2.958,0-5.781,1.229-7.802,3.385L37.292,190.5C13.25,216.271,0,249.875,0,285.115V384c0,58.813,47.854,106.667,106.667,106.667
	H384c23.531,0,42.667-19.135,42.667-42.667c0-7.806-2.259-15.033-5.934-21.333H448c23.531,0,42.667-19.135,42.667-42.667
	c0-8.845-2.707-17.066-7.332-23.885C499.969,354.288,512,338.602,512,320S499.969,285.712,483.335,279.885z"/>
<path style="fill:#FAFAFA;" d="M245.333,192c9.229,0,17.75,3.938,23.979,11.094c2.021,2.323,5.24,3.26,8.313,3.271h0.01
	c3.083,0,6.292-1.719,8.323-4.031c2-2.146,3.031-5.01,2.854-7.927c-0.177-2.927-1.542-5.646-3.781-7.531
	c-4.896-4.104-7.698-10.021-7.698-16.208c0-2.385,0.469-4.792,1.417-7.354c1.292-3.448,0.708-7.323-1.542-10.24
	s-5.875-4.396-9.51-4.104c-0.958,0.094-1.875,0.302-1.031,0.365c-5.885,0-10.667-4.781-10.667-10.667
	c-0.01-9.635,14.688-14.188,19.781-4.938c1.688,3.073,4.76,5.125,8.25,5.479c3.396,0.375,6.906-1,9.198-3.656
	c10.49-12.292,32.167-7.219,36.49,7.979c0.781,2.75,2.625,5.063,5.135,6.438c2.5,1.354,5.427,1.698,8.177,0.865
	c7.177-2.146,12.021-1.906,17.958-0.115c2.708,0.802,5.667,0.51,8.167-0.854c2.5-1.365,4.354-3.667,5.146-6.406
	c2.625-9.104,11-15.458,20.365-15.458c8.99,0,17.042,5.771,20.031,14.365c1.5,4.292,6.802,6.979,11.406,6.979
	c11.75,0.083,21.896,9.375,21.896,21.323c0,2.313-0.448,4.667-1.375,7.219c-1.229,3.375,0.01,7.052,2.156,9.938
	c2.021,2.698,5.781,4.198,9.198,4.198c17.99,0.104,32.688,14.104,32.688,31.979c0,5.215-1.432,10.181-3.762,14.664
	c-6.664-14.893-21.557-25.331-38.905-25.331H215.298C219.716,200.944,231.445,192,245.333,192z"/>
<g>
	<path style="opacity:0.2;fill:#FFFFFF;enable-background:new    ;" d="M423.4,153.031c1.5,4.292,6.802,6.979,11.406,6.979
		c4.362,0.031,8.277,1.647,11.76,3.88c-2.999-8.454-11.092-14.48-20.462-14.547c-1.775,0-3.605-0.505-5.329-1.242
		C421.81,149.629,422.772,151.227,423.4,153.031z"/>
	<path style="opacity:0.2;fill:#FFFFFF;enable-background:new    ;" d="M484.641,235.07c0.707,1.234,1.68,2.288,2.264,3.594
		c0.193-0.372,0.276-0.793,0.457-1.172C486.525,236.609,485.551,235.88,484.641,235.07z"/>
	<path style="opacity:0.2;fill:#FFFFFF;enable-background:new    ;" d="M457.483,198.49c2.021,2.698,5.781,4.198,9.198,4.198
		c7.835,0.046,14.951,2.837,20.594,7.327c-5.316-10.651-16.41-17.919-29.296-17.993c-0.919,0-1.829-0.372-2.758-0.585
		C455.243,193.928,455.938,196.411,457.483,198.49z"/>
	<path style="opacity:0.2;fill:#FFFFFF;enable-background:new    ;" d="M338.421,154.198c0.781,2.75,2.625,5.063,5.135,6.438
		c2.5,1.354,5.427,1.698,8.177,0.865c7.177-2.146,12.021-1.906,17.958-0.115c2.708,0.802,5.667,0.51,8.167-0.854
		c2.5-1.365,4.354-3.667,5.146-6.406c2.625-9.104,11-15.458,20.365-15.458c4.069,0,7.872,1.315,11.174,3.406
		C411.467,133.656,403.544,128,394.667,128c-9.365,0-17.74,6.354-20.365,15.458c-0.792,2.74-2.646,5.042-5.146,6.406
		c-2.5,1.365-5.458,1.656-8.167,0.854c-5.938-1.792-10.781-2.031-17.958,0.115c-2.092,0.634-4.237,0.391-6.268-0.266
		C337.384,151.733,338.044,152.874,338.421,154.198z"/>
	<path style="opacity:0.2;fill:#FFFFFF;enable-background:new    ;" d="M254.035,202.667c9.022,0,17.333,3.813,23.523,10.667h16.665
		c0.125-0.129,0.319-0.199,0.436-0.333c2-2.146,3.031-5.01,2.854-7.927c-0.177-2.927-1.542-5.646-3.781-7.531
		c-4.896-4.104-7.698-10.021-7.698-16.208c0-2.385,0.469-4.792,1.417-7.354c1.292-3.448,0.708-7.323-1.542-10.24
		c-1.676-2.173-4.182-3.232-6.82-3.671c-0.051,1.091,0.055,2.191-0.34,3.243c-0.948,2.563-1.417,4.969-1.417,7.354
		c0,6.188,2.802,12.104,7.698,16.208c2.24,1.885,3.604,4.604,3.781,7.531c0.177,2.917-0.854,5.781-2.854,7.927
		c-2.031,2.313-5.24,4.031-8.323,4.031h-0.01c-3.073-0.01-6.292-0.948-8.313-3.271c-6.229-7.156-14.75-11.094-23.979-11.094
		c-13.888,0-25.617,8.944-30.035,21.333h15.447C236.564,206.924,244.702,202.667,254.035,202.667z"/>
	<path style="opacity:0.2;fill:#FFFFFF;enable-background:new    ;" d="M264.775,148.951c0.398-9.354,14.688-13.673,19.708-4.555
		c1.688,3.073,4.76,5.125,8.25,5.479c3.396,0.375,6.906-1,9.198-3.656c7.029-8.237,18.991-8.542,27.479-3.362
		c-4.797-14.628-25.861-19.397-36.181-7.305c-2.292,2.656-5.802,4.031-9.198,3.656c-3.49-0.354-6.563-2.406-8.25-5.479
		c-5.094-9.25-19.792-4.698-19.781,4.938C256,143.882,259.824,148.026,264.775,148.951z"/>
</g>
<path style="fill:#FEF3E9;" d="M469.333,341.333h-160c-5.896,0-10.667,4.771-10.667,10.667c0,5.896,4.771,10.667,10.667,10.667H448
	c11.76,0,21.333,9.573,21.333,21.333c0,11.76-9.573,21.333-21.333,21.333H277.333c-5.896,0-10.667,4.771-10.667,10.667
	c0,5.896,4.771,10.667,10.667,10.667H384c11.76,0,21.333,9.573,21.333,21.333c0,11.76-9.573,21.333-21.333,21.333H106.667
	c-47.052,0-85.333-38.281-85.333-85.333v-98.885c0-29.813,11.208-58.25,31.563-80.052l111.74-119.729h3.51
	c13.156,0,23.854,10.698,23.854,23.854c0,3.677-0.875,7.375-2.521,10.667l-34.25,68.5c-5,9.99-4.469,21.635,1.396,31.135
	c5.875,9.5,16.052,15.177,27.229,15.177H448c11.76,0,21.333,9.573,21.333,21.333c0,11.76-9.573,21.333-21.333,21.333H309.333
	c-5.896,0-10.667,4.771-10.667,10.667c0,5.896,4.771,10.667,10.667,10.667h160c11.76,0,21.333,9.573,21.333,21.333
	C490.667,331.76,481.094,341.333,469.333,341.333z"/>
<path style="opacity:0.1;enable-background:new    ;" d="M384,448H106.667c-47.052,0-85.333-38.281-85.333-85.333V384
	c0,47.052,38.281,85.333,85.333,85.333H384c11.76,0,21.333-9.573,21.333-21.333c0-3.969-1.384-7.48-3.28-10.667
	C398.329,443.591,391.792,448,384,448z"/>
<circle style="fill:#303C42;" cx="330.667" cy="53.333" r="32"/>
<circle style="fill:#FAFAFA;" cx="330.667" cy="53.333" r="10.667"/>
<path style="fill:#303C42;" d="M405.333,85.333c11.76,0,21.333-9.573,21.333-21.333s-9.573-21.333-21.333-21.333S384,52.24,384,64
	S393.573,85.333,405.333,85.333z M416,64h-10.656c0,0-0.01-0.01-0.01-0.021L416,64z"/>
<linearGradient id="SVGID_1_" gradientUnits="userSpaceOnUse" x1="-44.8608" y1="638.5146" x2="-23.4706" y2="628.5396" gradientTransform="matrix(21.3333 0 0 -21.3333 996.3334 13791.667)">
	<stop  offset="0" style="stop-color:#FFFFFF;stop-opacity:0.2"/>
	<stop  offset="1" style="stop-color:#FFFFFF;stop-opacity:0"/>
</linearGradient>
<path style="fill:url(#SVGID_1_);" d="M483.335,279.885c2.552-3.762,4.346-8.025,5.596-12.509C503.099,257.464,512,241.487,512,224
	c0-25.76-18.365-47.313-42.677-52.26c0.01-0.365,0.01-0.719,0.01-1.073c0-21.844-16.5-39.906-37.688-42.375
	c-7.479-13.188-21.531-21.625-36.979-21.625c-15.438,0-29.521,8.552-36.979,21.667c-3.781-0.427-7.469-0.479-11.354,0.031
	c-7.448-13.135-21.531-21.698-37-21.698c-8.271,0-16.281,2.448-23.125,6.927c-5.521-4.417-12.365-6.927-19.542-6.927
	c-17.646,0-32,14.354-32,32c0,13.917,8.938,25.792,21.375,30.188c-0.031,0.604-0.042,1.208-0.042,1.813c0,0.365,0,0.74,0.01,1.104
	c-3.49-0.729-7.063-1.104-10.677-1.104c-25.754,0-47.298,18.353-52.254,42.667h-9.225c-5.375,0-8.135-3.542-9.073-5.063
	c-0.948-1.521-2.875-5.573-0.469-10.375l34.25-68.5c3.125-6.24,4.771-13.229,4.771-20.208c0-24.917-20.271-45.188-45.188-45.188H160
	c-2.958,0-5.781,1.229-7.802,3.385L37.292,190.5C13.25,216.271,0,249.875,0,285.115V384c0,58.813,47.854,106.667,106.667,106.667
	H384c23.531,0,42.667-19.135,42.667-42.667c0-7.806-2.259-15.033-5.934-21.333H448c23.531,0,42.667-19.135,42.667-42.667
	c0-8.845-2.707-17.066-7.332-23.885C499.969,354.288,512,338.602,512,320S499.969,285.712,483.335,279.885z M330.667,85.333
	c17.646,0,32-14.354,32-32s-14.354-32-32-32c-17.646,0-32,14.354-32,32S313.021,85.333,330.667,85.333z M405.333,85.333
	c11.76,0,21.333-9.573,21.333-21.333s-9.573-21.333-21.333-21.333S384,52.24,384,64S393.573,85.333,405.333,85.333z M416,64h-10.656
	c0,0-0.01-0.01-0.01-0.021L416,64z"/>
<g>
</g>
<g>
</g>
<g>
</g>
<g>
</g>
<g>
</g>
<g>
</g>
<g>
</g>
<g>
</g>
<g>
</g>
<g>
</g>
<g>
</g>
<g>
</g>
<g>
</g>
<g>
</g>
<g>
</g>
</svg>
